<mxfile host="app.diagrams.net" modified="2021-02-03T01:45:53.144Z" agent="5.0 (Macintosh; Intel Mac OS X 10_14_4) AppleWebKit/537.36 (KHTML, like Gecko) Chrome/88.0.4324.96 Safari/537.36" etag="QILXbqlEAsXUyCJXb9OE" version="14.2.9" type="github">
  <diagram id="6sNNPAAWcECSrXoV6YHF" name="Page-1">
    <mxGraphModel dx="1426" dy="803" grid="1" gridSize="10" guides="1" tooltips="1" connect="1" arrows="1" fold="1" page="1" pageScale="1" pageWidth="827" pageHeight="1169" math="0" shadow="0">
      <root>
        <mxCell id="0" />
        <mxCell id="1" parent="0" />
        <mxCell id="X6byX1UcMIF1LF-ZOXZZ-3" value="" style="rounded=0;whiteSpace=wrap;html=1;fillColor=#fff2cc;strokeColor=#d6b656;" vertex="1" parent="1">
          <mxGeometry x="250" y="190" width="220" height="320" as="geometry" />
        </mxCell>
        <mxCell id="X6byX1UcMIF1LF-ZOXZZ-7" value="docker.sock" style="rounded=1;whiteSpace=wrap;html=1;" vertex="1" parent="1">
          <mxGeometry x="292" y="440" width="136" height="60" as="geometry" />
        </mxCell>
        <mxCell id="X6byX1UcMIF1LF-ZOXZZ-8" value="" style="rounded=0;whiteSpace=wrap;html=1;dashed=1;fillColor=#f8cecc;strokeColor=#b85450;" vertex="1" parent="1">
          <mxGeometry x="270" y="210" width="180" height="170" as="geometry" />
        </mxCell>
        <mxCell id="X6byX1UcMIF1LF-ZOXZZ-4" value="fluentd" style="rounded=1;whiteSpace=wrap;html=1;" vertex="1" parent="1">
          <mxGeometry x="292" y="240" width="136" height="40" as="geometry" />
        </mxCell>
        <mxCell id="X6byX1UcMIF1LF-ZOXZZ-6" value="cce-log-agent" style="rounded=1;whiteSpace=wrap;html=1;fillColor=#d5e8d4;strokeColor=#82b366;" vertex="1" parent="1">
          <mxGeometry x="292" y="330" width="136" height="40" as="geometry" />
        </mxCell>
        <mxCell id="X6byX1UcMIF1LF-ZOXZZ-9" value="" style="endArrow=classic;html=1;exitX=0.5;exitY=0;exitDx=0;exitDy=0;entryX=0.5;entryY=1;entryDx=0;entryDy=0;edgeStyle=orthogonalEdgeStyle;curved=1;" edge="1" parent="1" source="X6byX1UcMIF1LF-ZOXZZ-6" target="X6byX1UcMIF1LF-ZOXZZ-4">
          <mxGeometry width="50" height="50" relative="1" as="geometry">
            <mxPoint x="390" y="440" as="sourcePoint" />
            <mxPoint x="440" y="390" as="targetPoint" />
            <Array as="points">
              <mxPoint x="370" y="330" />
              <mxPoint x="370" y="280" />
            </Array>
          </mxGeometry>
        </mxCell>
        <mxCell id="X6byX1UcMIF1LF-ZOXZZ-10" value="修改fluentd配置" style="text;html=1;align=center;verticalAlign=middle;resizable=0;points=[];autosize=1;" vertex="1" parent="1">
          <mxGeometry x="270" y="300" width="100" height="20" as="geometry" />
        </mxCell>
        <mxCell id="X6byX1UcMIF1LF-ZOXZZ-11" value="Pod" style="text;html=1;align=center;verticalAlign=middle;resizable=0;points=[];autosize=1;" vertex="1" parent="1">
          <mxGeometry x="270" y="210" width="40" height="20" as="geometry" />
        </mxCell>
        <mxCell id="X6byX1UcMIF1LF-ZOXZZ-12" value="Node" style="text;html=1;align=center;verticalAlign=middle;resizable=0;points=[];autosize=1;" vertex="1" parent="1">
          <mxGeometry x="252" y="190" width="40" height="20" as="geometry" />
        </mxCell>
        <mxCell id="X6byX1UcMIF1LF-ZOXZZ-13" value="监听容器启停事件" style="text;html=1;align=center;verticalAlign=middle;resizable=0;points=[];autosize=1;" vertex="1" parent="1">
          <mxGeometry x="250" y="400" width="110" height="20" as="geometry" />
        </mxCell>
        <mxCell id="X6byX1UcMIF1LF-ZOXZZ-14" value="" style="endArrow=classic;html=1;exitX=0.5;exitY=1;exitDx=0;exitDy=0;entryX=0.5;entryY=0;entryDx=0;entryDy=0;" edge="1" parent="1" source="X6byX1UcMIF1LF-ZOXZZ-6" target="X6byX1UcMIF1LF-ZOXZZ-7">
          <mxGeometry width="50" height="50" relative="1" as="geometry">
            <mxPoint x="390" y="440" as="sourcePoint" />
            <mxPoint x="440" y="390" as="targetPoint" />
          </mxGeometry>
        </mxCell>
      </root>
    </mxGraphModel>
  </diagram>
</mxfile>
